<?xml version="1.0" encoding="UTF-8" standalone="no"?>
<svg
   xmlns:dc="http://purl.org/dc/elements/1.1/"
   xmlns:cc="http://creativecommons.org/ns#"
   xmlns:rdf="http://www.w3.org/1999/02/22-rdf-syntax-ns#"
   xmlns:svg="http://www.w3.org/2000/svg"
   xmlns="http://www.w3.org/2000/svg"
   xmlns:sodipodi="http://sodipodi.sourceforge.net/DTD/sodipodi-0.dtd"
   xmlns:inkscape="http://www.inkscape.org/namespaces/inkscape"
   version="1.1"
   width="684.29028"
   height="686.14642"
   id="svg34"
   sodipodi:docname="favicon.svg"
   inkscape:version="0.92.3 (2405546, 2018-03-11)"
   inkscape:export-filename="/home/longwei/Nextcloud/Data-Science-Projects/datapleth/static/favicon.png"
   inkscape:export-xdpi="35.817429"
   inkscape:export-ydpi="35.817429">
  <metadata
     id="metadata40">
    <rdf:RDF>
      <cc:Work
         rdf:about="">
        <dc:format>image/svg+xml</dc:format>
        <dc:type
           rdf:resource="http://purl.org/dc/dcmitype/StillImage" />
        <dc:title></dc:title>
      </cc:Work>
    </rdf:RDF>
  </metadata>
  <defs
     id="defs38" />
  <sodipodi:namedview
     pagecolor="#ffffff"
     bordercolor="#666666"
     borderopacity="1"
     objecttolerance="10"
     gridtolerance="10"
     guidetolerance="10"
     inkscape:pageopacity="0"
     inkscape:pageshadow="2"
     inkscape:window-width="2594"
     inkscape:window-height="1495"
     id="namedview36"
     showgrid="false"
     inkscape:zoom="1.3009418"
     inkscape:cx="170.9177"
     inkscape:cy="308.83687"
     inkscape:window-x="859"
     inkscape:window-y="158"
     inkscape:window-maximized="0"
     inkscape:current-layer="svg34"
     showguides="true"
     inkscape:guide-bbox="true"
     fit-margin-top="0"
     fit-margin-left="0"
     fit-margin-right="0"
     fit-margin-bottom="0">
    <sodipodi:guide
       position="-1195.8624,4.6859278"
       orientation="0,1"
       id="guide4677"
       inkscape:locked="false" />
  </sodipodi:namedview>
  <g
     id="Layer_2"
     transform="matrix(11.538462,0,0,11.538462,-276.0466,223.30752)" />
  <g
     id="SvgjsG1265"
     transform="matrix(11.538462,0,0,11.538462,-276.0466,223.30752)" />
  <g
     style="fill:#027366;fill-opacity:1"
     id="1561670277711"
     rel="main_text"
     transform="matrix(11.538462,0,0,11.538462,-276.0466,246.56458)" />
  <rect
     id="rect40"
     width="676.0813"
     height="677.9704"
     x="4.1044922"
     y="4.0880189"
     style="fill:none;fill-opacity:1;stroke:#600000;stroke-opacity:0" />
  <rect
     style="fill:#ffffff;fill-opacity:1;stroke:#027366;stroke-width:20;stroke-miterlimit:4;stroke-dasharray:none;stroke-opacity:1"
     id="rect847"
     width="664.29028"
     height="666.14642"
     x="10"
     y="10" />
  <g
     id="1561670282759"
     rel="symbol"
     transform="matrix(8.9006113,0,0,8.4944562,-13.87931,239.48484)"
     style="fill:#027366;fill-opacity:1">
    <path
       class="st0"
       d="m 66.2,29.7 -2.7,5.8 h -2.1 l -1.1,-1.3 -1.5,2.6 H 55.9 L 54,42.5 H 52.2 L 48.6,31.4 47.5,34.8 H 45.9 L 43.5,26.2 39.4,40 H 36.5 L 35,42.2 h -1.2 l -5.4,-12 -4.1,12.9 h -1.8 l -3.1,-8 -5.1,8.4 -2.2,-5.4 c 0,0 -2.2,5.6 -2.2,5.7 0,0.1 -1.6,-4.6 -1.6,-4.6 0,0 -3.2,8.1 -3.3,8.3 v 0.4 h 70 v -3.5 z"
       style="fill:#027366;fill-opacity:1"
       id="path6"
       inkscape:connector-curvature="0" />
    <rect
       x="7"
       y="37.299999"
       class="st0"
       width="2.5"
       height="0.60000002"
       style="fill:#027366;fill-opacity:1"
       id="rect8" />
    <rect
       x="10.8"
       y="36.700001"
       class="st0"
       width="2.5"
       height="0.60000002"
       style="fill:#027366;fill-opacity:1"
       id="rect10" />
    <rect
       x="18.1"
       y="34.099998"
       class="st0"
       width="2.5"
       height="0.60000002"
       style="fill:#027366;fill-opacity:1"
       id="rect12" />
    <rect
       x="26.9"
       y="28.799999"
       class="st0"
       width="2.5"
       height="0.60000002"
       style="fill:#027366;fill-opacity:1"
       id="rect14" />
    <rect
       x="42"
       y="25"
       class="st0"
       width="2.5"
       height="0.60000002"
       style="fill:#027366;fill-opacity:1"
       id="rect16" />
    <rect
       x="47.099998"
       y="30.200001"
       class="st0"
       width="2.5"
       height="0.60000002"
       style="fill:#027366;fill-opacity:1"
       id="rect18" />
    <rect
       x="58.900002"
       y="33"
       class="st0"
       width="2.5"
       height="0.60000002"
       style="fill:#027366;fill-opacity:1"
       id="rect20" />
    <rect
       x="65.099998"
       y="28.299999"
       class="st0"
       width="2.5"
       height="0.60000002"
       style="fill:#027366;fill-opacity:1"
       id="rect22" />
  </g>
  <path
     class="st1"
     d="m 414.08551,36.421511 c 4.27368,-1.42456 8.54736,-1.42456 12.82105,-1.42456 h 12.82105 12.82107 c 4.27368,0 8.54736,1.42456 12.82105,1.42456 V 422.47772 c -14.24562,4.27369 -28.49125,7.12281 -45.58598,9.97192 -17.09474,2.84912 -35.61404,4.27369 -56.98246,4.27369 -19.94386,0 -37.0386,-2.84911 -55.5579,-7.1228 -17.09474,-4.27369 -32.76492,-12.82107 -45.58596,-24.21755 -12.82106,-11.3965 -22.79299,-25.64212 -31.34036,-42.73685 -7.12282,-17.09474 -11.39651,-39.88773 -11.39651,-65.52984 0,-22.79299 2.84914,-42.73685 9.97195,-61.25615 7.1228,-18.51931 15.67018,-34.18947 28.49123,-47.01054 12.82105,-12.82106 27.06667,-22.79298 44.1614,-29.9158 17.09475,-7.1228 35.61405,-11.39648 56.98247,-11.39648 9.97193,0 18.5193,1.42456 28.49123,2.84912 9.97192,1.42456 18.5193,2.84912 25.6421,5.69825 z m 0,163.824579 c -7.12281,-2.84911 -14.24562,-5.69825 -22.79298,-7.1228 -8.54738,-1.42456 -17.09474,-2.84913 -27.06668,-2.84913 -14.24561,0 -27.06666,2.84913 -38.46316,8.54737 -11.39649,5.69825 -19.94386,12.82106 -27.06666,21.36844 -7.12282,9.97193 -12.82106,19.94386 -15.67019,32.76492 -2.84911,12.82104 -5.69824,27.06667 -5.69824,41.31229 0,34.18947 8.54737,58.40701 24.21754,72.65262 15.67019,14.24563 37.0386,21.36844 64.10527,21.36844 9.97193,0 18.5193,0 25.64212,-1.42456 8.54736,-1.42456 14.24561,-2.84913 21.36841,-4.27369 v -182.3439 z"
     style="fill:#027366;fill-opacity:1;stroke-width:14.24561596"
     id="path25"
     inkscape:connector-curvature="0"
     sodipodi:nodetypes="cscsccsscscsssssscccssscsssscccc" />
</svg>
