<?xml version="1.0" encoding="UTF-8" standalone="no"?>
<svg
   xmlns:dc="http://purl.org/dc/elements/1.1/"
   xmlns:cc="http://creativecommons.org/ns#"
   xmlns:rdf="http://www.w3.org/1999/02/22-rdf-syntax-ns#"
   xmlns:svg="http://www.w3.org/2000/svg"
   xmlns="http://www.w3.org/2000/svg"
   xmlns:sodipodi="http://sodipodi.sourceforge.net/DTD/sodipodi-0.dtd"
   xmlns:inkscape="http://www.inkscape.org/namespaces/inkscape"
   version="1.1"
   width="45.000004"
   height="45.122066"
   id="svg34"
   sodipodi:docname="logo-mobile.svg"
   inkscape:version="0.92.3 (2405546, 2018-03-11)"
   inkscape:export-filename="/home/longwei/Nextcloud/Data-Science-Projects/datapleth/static/favicon.png"
   inkscape:export-xdpi="35.817429"
   inkscape:export-ydpi="35.817429">
  <metadata
     id="metadata40">
    <rdf:RDF>
      <cc:Work
         rdf:about="">
        <dc:format>image/svg+xml</dc:format>
        <dc:type
           rdf:resource="http://purl.org/dc/dcmitype/StillImage" />
        <dc:title></dc:title>
      </cc:Work>
    </rdf:RDF>
  </metadata>
  <defs
     id="defs38" />
  <sodipodi:namedview
     pagecolor="#ffffff"
     bordercolor="#666666"
     borderopacity="1"
     objecttolerance="10"
     gridtolerance="10"
     guidetolerance="10"
     inkscape:pageopacity="0"
     inkscape:pageshadow="2"
     inkscape:window-width="3770"
     inkscape:window-height="2045"
     id="namedview36"
     showgrid="false"
     inkscape:zoom="5.2037672"
     inkscape:cx="18.216287"
     inkscape:cy="41.017881"
     inkscape:window-x="70"
     inkscape:window-y="55"
     inkscape:window-maximized="1"
     inkscape:current-layer="svg34"
     showguides="true"
     inkscape:guide-bbox="true"
     fit-margin-top="0"
     fit-margin-left="0"
     fit-margin-right="0"
     fit-margin-bottom="0">
    <sodipodi:guide
       position="-1515.5075,-315.82625"
       orientation="0,1"
       id="guide4677"
       inkscape:locked="false" />
  </sodipodi:namedview>
  <g
     id="Layer_2"
     transform="matrix(0.75878738,0,0,0.75878738,-18.153258,14.685053)" />
  <g
     id="SvgjsG1265"
     transform="matrix(0.75878738,0,0,0.75878738,-18.153258,14.685053)" />
  <g
     style="fill:#027366;fill-opacity:1"
     id="1561670277711"
     rel="main_text"
     transform="matrix(0.75878738,0,0,0.75878738,-18.153258,16.214474)" />
  <rect
     id="rect40"
     width="44.460167"
     height="44.584396"
     x="0.26991785"
     y="0.26883453"
     style="fill:none;fill-opacity:1;stroke:#600000;stroke-width:0.06576157;stroke-opacity:0" />
  <rect
     style="fill:#ffffff;fill-opacity:1;stroke:#027366;stroke-width:1.31523144;stroke-miterlimit:4;stroke-dasharray:none;stroke-opacity:1"
     id="rect847"
     width="43.684772"
     height="43.806835"
     x="0.65761572"
     y="0.65761572" />
  <path
     inkscape:connector-curvature="0"
     id="path6"
     style="fill:#027366;fill-opacity:1;stroke-width:0.57180756"
     d="m 37.835338,32.997196 -1.580359,3.239931 H 35.02581 l -0.64385,-0.726192 -0.877977,1.452383 H 31.80656 l -1.112104,3.18407 h -1.053573 l -2.107145,-6.200557 -0.64385,1.89927 h -0.936509 l -1.404764,-4.804036 -2.399804,7.708801 h -1.697423 l -0.877977,1.22894 H 18.871029 L 15.710311,33.2765 13.310506,40.482553 h -1.053572 l -1.814487,-4.46887 -2.9851224,4.692314 -1.2877,-3.016487 c 0,0 -1.2876999,3.128209 -1.2876999,3.18407 0,0.05586 -0.9365091,-2.569601 -0.9365091,-2.569601 0,0 -1.8730182,4.524731 -1.93155,4.636453 v 0.223444 H 42.986138 v -1.955131 z"
     class="st0" />
  <rect
     id="rect8"
     style="fill:#027366;fill-opacity:1;stroke-width:0.57180756"
     height="0.33516529"
     width="1.4632955"
     class="st0"
     y="37.242622"
     x="3.1845019" />
  <rect
     id="rect10"
     style="fill:#027366;fill-opacity:1;stroke-width:0.57180756"
     height="0.33516529"
     width="1.4632955"
     class="st0"
     y="36.907459"
     x="5.408711" />
  <rect
     id="rect12"
     style="fill:#027366;fill-opacity:1;stroke-width:0.57180756"
     height="0.33516529"
     width="1.4632955"
     class="st0"
     y="35.455074"
     x="9.6815338" />
  <rect
     id="rect16"
     style="fill:#027366;fill-opacity:1;stroke-width:0.57180756"
     height="0.33516529"
     width="1.4632955"
     class="st0"
     y="30.371735"
     x="23.670637" />
  <rect
     id="rect18"
     style="fill:#027366;fill-opacity:1;stroke-width:0.57180756"
     height="0.33516529"
     width="1.4632955"
     class="st0"
     y="33.276501"
     x="26.65576" />
  <rect
     id="rect22"
     style="fill:#027366;fill-opacity:1;stroke-width:0.57180756"
     height="0.33516529"
     width="1.4632955"
     class="st0"
     y="32.215141"
     x="37.191486" />
  <path
     style="fill:#027366;fill-opacity:1;stroke-width:1.42291939"
     clip-path="none"
     d="m 30.882397,1.9975161 c -0.426877,0 -0.852423,2.86e-4 -1.279297,0.142578 L 29.460522,14.093219 c -0.711458,-0.284586 -1.566456,-0.428017 -2.5625,-0.570313 -0.996041,-0.142287 -1.849659,-0.283203 -2.845703,-0.283203 -2.134378,0 -3.983904,0.42526 -5.691406,1.136719 -1.707504,0.711462 -3.129529,1.70765 -4.410157,2.988281 -1.280629,1.280627 -2.134243,2.845517 -2.845703,4.695313 -0.711461,1.849797 -0.996094,3.842472 -0.996094,6.11914 0,2.56126 0.42526,4.837422 1.136719,6.544918 0.678452,1.35691 1.455189,2.52792 2.384766,3.5254 l 1.996093,-5.988286 3.160157,6.703126 h 0.703125 l 0.878906,-1.23047 h 1.697266 l 0.214843,-0.6875 c -1.560225,-0.31452 -2.870958,-0.94093 -3.919921,-1.89453 -1.565214,-1.422921 -2.417969,-3.842807 -2.417969,-7.257814 0,-1.422918 0.283773,-2.844375 0.568359,-4.125 0.284581,-1.280628 0.852993,-2.277395 1.564453,-3.273437 0.71146,-0.853751 1.566742,-1.565599 2.705078,-2.134766 1.138336,-0.569168 2.418879,-0.853515 3.841797,-0.853515 0.996044,0 1.84937,0.14286 2.703125,0.285156 0.853749,0.142292 1.565884,0.426354 2.277344,0.710937 h -0.142578 v 18.212889 c -0.225804,0.0452 -0.466949,0.0896 -0.677735,0.13477 l 0.775391,2.27929 h 1.052735 l 1.111328,-3.18359 h 1.699218 l 0.876954,-1.451171 0.425781,0.478511 V 2.1400941 c -0.426875,0 -0.852421,-0.142578 -1.279297,-0.142578 h -1.28125 z"
     id="path25"
     inkscape:connector-curvature="0" />
</svg>
