<?xml version="1.0" encoding="UTF-8" standalone="no"?>
<svg
   xmlns:dc="http://purl.org/dc/elements/1.1/"
   xmlns:cc="http://creativecommons.org/ns#"
   xmlns:rdf="http://www.w3.org/1999/02/22-rdf-syntax-ns#"
   xmlns:svg="http://www.w3.org/2000/svg"
   xmlns="http://www.w3.org/2000/svg"
   xmlns:sodipodi="http://sodipodi.sourceforge.net/DTD/sodipodi-0.dtd"
   xmlns:inkscape="http://www.inkscape.org/namespaces/inkscape"
   version="1.1"
   width="3230.769230769231"
   height="969.2307692307693"
   id="svg34"
   sodipodi:docname="logo.svg"
   inkscape:version="0.92.3 (2405546, 2018-03-11)">
  <metadata
     id="metadata40">
    <rdf:RDF>
      <cc:Work
         rdf:about="">
        <dc:format>image/svg+xml</dc:format>
        <dc:type
           rdf:resource="http://purl.org/dc/dcmitype/StillImage" />
        <dc:title></dc:title>
      </cc:Work>
    </rdf:RDF>
  </metadata>
  <defs
     id="defs38" />
  <sodipodi:namedview
     pagecolor="#ffffff"
     bordercolor="#666666"
     borderopacity="1"
     objecttolerance="10"
     gridtolerance="10"
     guidetolerance="10"
     inkscape:pageopacity="0"
     inkscape:pageshadow="2"
     inkscape:window-width="2594"
     inkscape:window-height="1495"
     id="namedview36"
     showgrid="false"
     inkscape:zoom="0.22997619"
     inkscape:cx="1615.3846"
     inkscape:cy="484.61539"
     inkscape:window-x="859"
     inkscape:window-y="158"
     inkscape:window-maximized="0"
     inkscape:current-layer="svg34" />
  <g
     id="Layer_2"
     transform="matrix(11.538462,0,0,11.538462,115.38462,115.38462)" />
  <g
     id="SvgjsG1265"
     transform="matrix(11.538462,0,0,11.538462,115.38462,115.38462)" />
  <g
     id="1561670282759"
     rel="symbol"
     transform="matrix(11.538462,0,0,11.538462,115.38462,115.38462)"
     style="fill:#027366;fill-opacity:1">
    <path
       class="st0"
       d="m 66.2,29.7 -2.7,5.8 h -2.1 l -1.1,-1.3 -1.5,2.6 H 55.9 L 54,42.5 H 52.2 L 48.6,31.4 47.5,34.8 H 45.9 L 43.5,26.2 39.4,40 H 36.5 L 35,42.2 h -1.2 l -5.4,-12 -4.1,12.9 h -1.8 l -3.1,-8 -5.1,8.4 -2.2,-5.4 c 0,0 -2.2,5.6 -2.2,5.7 0,0.1 -1.6,-4.6 -1.6,-4.6 0,0 -3.2,8.1 -3.3,8.3 v 0.4 h 70 v -3.5 z"
       style="fill:#027366;fill-opacity:1"
       id="path6"
       inkscape:connector-curvature="0" />
    <rect
       x="7"
       y="37.299999"
       class="st0"
       width="2.5"
       height="0.60000002"
       style="fill:#027366;fill-opacity:1"
       id="rect8" />
    <rect
       x="10.8"
       y="36.700001"
       class="st0"
       width="2.5"
       height="0.60000002"
       style="fill:#027366;fill-opacity:1"
       id="rect10" />
    <rect
       x="18.1"
       y="34.099998"
       class="st0"
       width="2.5"
       height="0.60000002"
       style="fill:#027366;fill-opacity:1"
       id="rect12" />
    <rect
       x="26.9"
       y="28.799999"
       class="st0"
       width="2.5"
       height="0.60000002"
       style="fill:#027366;fill-opacity:1"
       id="rect14" />
    <rect
       x="42"
       y="25"
       class="st0"
       width="2.5"
       height="0.60000002"
       style="fill:#027366;fill-opacity:1"
       id="rect16" />
    <rect
       x="47.099998"
       y="30.200001"
       class="st0"
       width="2.5"
       height="0.60000002"
       style="fill:#027366;fill-opacity:1"
       id="rect18" />
    <rect
       x="58.900002"
       y="33"
       class="st0"
       width="2.5"
       height="0.60000002"
       style="fill:#027366;fill-opacity:1"
       id="rect20" />
    <rect
       x="65.099998"
       y="28.299999"
       class="st0"
       width="2.5"
       height="0.60000002"
       style="fill:#027366;fill-opacity:1"
       id="rect22" />
  </g>
  <g
     style="fill:#027366;fill-opacity:1"
     id="1561670277711"
     rel="main_text"
     transform="matrix(11.538462,0,0,11.538462,115.38462,115.38462)">
    <path
       class="st1"
       d="m 108.5,9.2 c 0.3,-0.1 0.6,-0.1 0.9,-0.1 0.4,0 0.7,0 0.9,0 0.3,0 0.6,0 0.9,0 0.3,0 0.6,0.1 0.9,0.1 v 27.1 c -1,0.3 -2,0.5 -3.2,0.7 -1.2,0.2 -2.5,0.3 -4,0.3 -1.4,0 -2.6,-0.2 -3.9,-0.5 -1.2,-0.3 -2.3,-0.9 -3.2,-1.7 -0.9,-0.8 -1.6,-1.8 -2.2,-3 -0.5,-1.2 -0.8,-2.8 -0.8,-4.6 0,-1.6 0.2,-3 0.7,-4.3 0.5,-1.3 1.1,-2.4 2,-3.3 0.9,-0.9 1.9,-1.6 3.1,-2.1 1.2,-0.5 2.5,-0.8 4,-0.8 0.7,0 1.3,0.1 2,0.2 0.7,0.1 1.3,0.2 1.8,0.4 z m 0,11.5 c -0.5,-0.2 -1,-0.4 -1.6,-0.5 -0.6,-0.1 -1.2,-0.2 -1.9,-0.2 -1,0 -1.9,0.2 -2.7,0.6 -0.8,0.4 -1.4,0.9 -1.9,1.5 -0.5,0.7 -0.9,1.4 -1.1,2.3 -0.2,0.9 -0.4,1.9 -0.4,2.9 0,2.4 0.6,4.1 1.7,5.1 1.1,1 2.6,1.5 4.5,1.5 0.7,0 1.3,0 1.8,-0.1 0.6,-0.1 1,-0.2 1.5,-0.3 V 20.7 Z m 19.9,7 c -0.4,-0.1 -0.9,-0.1 -1.4,-0.2 -0.5,-0.1 -1.1,-0.1 -1.5,-0.1 -1.6,0 -2.7,0.3 -3.6,0.9 -0.8,0.6 -1.2,1.5 -1.2,2.6 0,0.8 0.1,1.3 0.4,1.8 0.3,0.5 0.6,0.8 1,1 0.4,0.2 0.9,0.4 1.4,0.4 0.5,0.1 1,0.1 1.4,0.1 0.6,0 1.2,0 1.8,-0.1 0.6,-0.1 1.2,-0.2 1.6,-0.3 v -6.1 z m 0,-3.6 c 0,-1.5 -0.4,-2.5 -1.1,-3.1 -0.8,-0.6 -1.8,-0.9 -3.3,-0.9 -0.9,0 -1.7,0.1 -2.5,0.2 -0.8,0.1 -1.5,0.3 -2.2,0.5 -0.5,-0.8 -0.7,-1.8 -0.7,-3 0.9,-0.3 1.8,-0.5 2.8,-0.6 1,-0.2 2,-0.2 3,-0.2 2.5,0 4.4,0.6 5.7,1.7 1.3,1.1 2,3 2,5.5 v 12.1 c -0.9,0.2 -1.9,0.4 -3.2,0.6 -1.3,0.2 -2.5,0.3 -3.8,0.3 -1.2,0 -2.3,-0.1 -3.3,-0.3 -1,-0.2 -1.8,-0.6 -2.5,-1.1 -0.7,-0.5 -1.2,-1.1 -1.6,-1.9 -0.4,-0.8 -0.6,-1.7 -0.6,-2.8 0,-1.1 0.2,-2 0.7,-2.8 0.4,-0.8 1,-1.5 1.8,-2 0.8,-0.5 1.6,-0.9 2.6,-1.2 1,-0.3 2,-0.4 3.1,-0.4 0.8,0 1.5,0 2,0.1 0.5,0 0.9,0.1 1.3,0.1 z m 10,-3.7 h -2.9 l -0.2,-0.5 6.5,-7.2 h 0.3 v 4.8 h 4.9 c 0.1,0.4 0.2,0.9 0.2,1.4 0,0.3 0,0.5 0,0.8 0,0.3 -0.1,0.5 -0.1,0.8 h -4.9 v 8.8 c 0,1.1 0,1.9 0.1,2.5 0.1,0.6 0.2,1.1 0.5,1.5 0.3,0.4 0.5,0.6 0.9,0.7 0.4,0.1 0.8,0.2 1.4,0.2 0.4,0 0.8,0 1.2,-0.1 0.4,-0.1 0.7,-0.1 1,-0.2 0.2,0.5 0.3,1 0.3,1.5 0,0.5 0.1,1 0.1,1.4 -0.5,0.1 -1,0.2 -1.6,0.3 -0.6,0.1 -1.1,0.1 -1.8,0.1 -1.8,0 -3.2,-0.4 -4.2,-1.3 -1,-0.9 -1.5,-2.3 -1.5,-4.4 V 20.4 Z m 23,7.3 c -0.4,-0.1 -0.9,-0.1 -1.4,-0.2 -0.6,-0.1 -1.1,-0.1 -1.5,-0.1 -1.6,0 -2.7,0.3 -3.6,0.9 -0.9,0.6 -1.2,1.5 -1.2,2.6 0,0.8 0.1,1.3 0.4,1.8 0.3,0.5 0.6,0.8 1,1 0.4,0.2 0.9,0.4 1.4,0.4 0.5,0.1 1,0.1 1.4,0.1 0.6,0 1.2,0 1.8,-0.1 0.6,-0.1 1.2,-0.2 1.6,-0.3 v -6.1 z m 0,-3.6 c 0,-1.5 -0.4,-2.5 -1.1,-3.1 -0.7,-0.6 -1.8,-0.9 -3.3,-0.9 -0.9,0 -1.7,0.1 -2.5,0.2 -0.8,0.1 -1.5,0.3 -2.2,0.5 -0.5,-0.8 -0.7,-1.8 -0.7,-3 0.9,-0.3 1.8,-0.5 2.8,-0.6 1,-0.1 2,-0.2 3,-0.2 2.5,0 4.4,0.6 5.7,1.7 1.3,1.1 2,3 2,5.5 v 12.1 c -0.9,0.2 -1.9,0.4 -3.2,0.6 -1.3,0.2 -2.5,0.3 -3.8,0.3 -1.2,0 -2.3,-0.1 -3.3,-0.3 -1,-0.2 -1.8,-0.6 -2.5,-1.1 -0.7,-0.5 -1.2,-1.1 -1.6,-1.9 -0.4,-0.8 -0.6,-1.7 -0.6,-2.8 0,-1.1 0.2,-2 0.7,-2.8 0.4,-0.8 1,-1.5 1.8,-2 0.8,-0.5 1.6,-0.9 2.6,-1.2 1,-0.3 2,-0.4 3.1,-0.4 0.8,0 1.5,0 2,0.1 0.5,0.1 1,0.1 1.3,0.1 v -0.8 z m 9.3,-6.6 c 0.3,-0.1 0.5,-0.1 0.8,-0.1 0.3,0 0.5,0 0.8,0 0.3,0 0.5,0 0.8,0 0.3,0 0.5,0.1 0.8,0.1 0,0.1 0.1,0.2 0.1,0.5 0,0.3 0.1,0.5 0.1,0.8 0,0.3 0.1,0.6 0.1,0.9 0,0.3 0.1,0.5 0.1,0.5 0.3,-0.4 0.6,-0.8 0.9,-1.2 0.4,-0.4 0.8,-0.7 1.3,-1 0.5,-0.3 1,-0.5 1.7,-0.7 0.7,-0.2 1.3,-0.3 2.1,-0.3 1.1,0 2.2,0.2 3.2,0.6 1,0.4 1.8,1 2.5,1.8 0.7,0.8 1.2,1.8 1.6,3 0.4,1.2 0.6,2.7 0.6,4.3 0,3.3 -0.9,5.9 -2.7,7.8 -1.8,1.9 -4.3,2.8 -7.6,2.8 -0.6,0 -1.1,0 -1.7,-0.1 -0.6,-0.1 -1.1,-0.2 -1.5,-0.3 v 8.9 c -0.3,0.1 -0.6,0.1 -1,0.1 -0.4,0 -0.6,0 -0.9,0 -0.3,0 -0.6,0 -0.9,0 -0.3,0 -0.6,-0.1 -0.9,-0.1 V 17.5 Z m 3.7,16.1 c 0.5,0.2 1,0.3 1.5,0.4 0.5,0.1 1.2,0.1 2,0.1 0.9,0 1.7,-0.1 2.5,-0.4 0.8,-0.3 1.4,-0.7 1.9,-1.3 0.5,-0.6 1,-1.4 1.3,-2.3 0.3,-0.9 0.5,-2 0.5,-3.3 0,-2 -0.4,-3.6 -1.1,-4.8 -0.7,-1.2 -2,-1.8 -3.6,-1.8 -0.6,0 -1.2,0.1 -1.8,0.3 -0.6,0.2 -1.1,0.6 -1.5,1 -0.4,0.4 -0.8,1 -1.1,1.7 -0.3,0.7 -0.4,1.5 -0.4,2.5 v 7.9 z M 192.9,9.2 c 0.3,-0.1 0.6,-0.1 0.9,-0.1 0.3,0 0.6,0 0.9,0 0.3,0 0.6,0 0.9,0 0.3,0 0.6,0.1 0.9,0.1 V 31 c 0,0.7 0.1,1.3 0.2,1.7 0.1,0.4 0.3,0.7 0.5,0.9 0.2,0.2 0.5,0.4 0.8,0.4 0.3,0.1 0.6,0.1 0.9,0.1 0.2,0 0.5,0 0.8,0 0.3,0 0.5,-0.1 0.7,-0.1 0.2,0.9 0.3,1.8 0.3,2.9 -0.4,0.1 -0.8,0.2 -1.3,0.2 -0.5,0 -1,0.1 -1.4,0.1 -0.7,0 -1.4,-0.1 -2,-0.3 -0.6,-0.2 -1.2,-0.5 -1.7,-0.9 -0.5,-0.4 -0.9,-0.9 -1.1,-1.6 -0.3,-0.7 -0.4,-1.5 -0.4,-2.5 z M 207,28.1 c 0,2.1 0.6,3.7 1.6,4.6 1,1 2.6,1.5 4.6,1.5 1.8,0 3.5,-0.3 5.1,-0.9 0.2,0.4 0.4,0.8 0.5,1.4 0.1,0.5 0.2,1.1 0.2,1.6 -0.8,0.4 -1.7,0.6 -2.7,0.8 -1,0.2 -2.1,0.3 -3.3,0.3 -1.8,0 -3.3,-0.2 -4.5,-0.7 -1.3,-0.5 -2.3,-1.2 -3.1,-2.1 -0.8,-0.9 -1.4,-1.9 -1.8,-3.2 -0.4,-1.2 -0.6,-2.6 -0.6,-4 0,-1.4 0.2,-2.8 0.5,-4 0.4,-1.2 0.9,-2.3 1.7,-3.2 0.8,-0.9 1.7,-1.6 2.8,-2.2 1.1,-0.5 2.5,-0.8 4.1,-0.8 1.3,0 2.5,0.2 3.5,0.7 1,0.5 1.8,1.1 2.5,1.9 0.7,0.8 1.2,1.7 1.5,2.8 0.4,1.1 0.5,2.3 0.5,3.6 0,0.4 0,0.7 0,1.1 0,0.4 0,0.7 -0.1,1 h -13 z m 9.6,-2.8 c 0,-0.7 -0.1,-1.4 -0.3,-2 -0.2,-0.6 -0.5,-1.2 -0.8,-1.7 -0.4,-0.5 -0.8,-0.9 -1.4,-1.2 -0.6,-0.3 -1.2,-0.4 -2,-0.4 -1.5,0 -2.7,0.5 -3.5,1.4 -0.8,0.9 -1.3,2.2 -1.5,3.9 z m 9.3,-4.9 H 223 l -0.2,-0.5 6.5,-7.2 h 0.3 v 4.8 h 4.9 c 0.1,0.4 0.2,0.9 0.2,1.4 0,0.3 0,0.5 0,0.8 0,0.3 -0.1,0.5 -0.1,0.8 h -4.9 v 8.8 c 0,1.1 0,1.9 0.1,2.5 0.1,0.6 0.2,1.1 0.5,1.5 0.2,0.3 0.5,0.6 0.9,0.7 0.4,0.1 0.8,0.2 1.4,0.2 0.4,0 0.8,0 1.2,-0.1 0.4,-0.1 0.7,-0.1 1,-0.2 0.2,0.5 0.3,1 0.3,1.5 0,0.5 0.1,1 0.1,1.4 -0.5,0.1 -1,0.2 -1.6,0.3 -0.6,0.1 -1.1,0.1 -1.8,0.1 -1.8,0 -3.2,-0.4 -4.2,-1.3 -1,-0.9 -1.5,-2.3 -1.5,-4.4 V 20.4 Z M 238.7,9.2 c 0.3,-0.1 0.6,-0.1 0.9,-0.1 0.3,0 0.6,0 0.9,0 0.3,0 0.6,0 0.9,0 0.4,0 0.7,0.1 0.9,0.1 v 11.2 c 0.2,-0.4 0.5,-0.7 0.8,-1.1 0.3,-0.4 0.8,-0.8 1.2,-1.1 0.5,-0.3 1.1,-0.6 1.7,-0.8 0.6,-0.2 1.4,-0.3 2.1,-0.3 2.2,0 3.9,0.6 4.9,1.9 1.1,1.3 1.6,3.2 1.6,5.6 v 12.3 c -0.3,0.1 -0.6,0.1 -0.9,0.1 -0.3,0 -0.6,0 -0.9,0 -0.3,0 -0.6,0 -0.9,0 -0.3,0 -0.6,-0.1 -0.9,-0.1 V 25.6 c 0,-1.8 -0.3,-3.1 -0.9,-3.9 -0.6,-0.8 -1.5,-1.3 -2.7,-1.3 -0.7,0 -1.3,0.1 -2,0.4 -0.7,0.3 -1.2,0.6 -1.7,1.1 -0.5,0.5 -0.9,1.2 -1.1,2 -0.3,0.8 -0.4,1.8 -0.4,3 v 9.9 c -0.3,0.1 -0.6,0.1 -0.9,0.1 -0.4,0 -0.7,0 -0.9,0 -0.3,0 -0.6,0 -0.9,0 -0.3,0 -0.7,-0.1 -0.9,-0.1 V 9.2 Z"
       style="fill:#027366;fill-opacity:1"
       id="path25"
       inkscape:connector-curvature="0" />
  </g>
  <g
     id="1561670280029"
     rel="slogan_text"
     transform="matrix(11.538462,0,0,11.538462,115.38462,115.38462)"
     style="fill:#027366;fill-opacity:1">
    <path
       class="st0"
       d="m 100.2,53.6 c 0,1.2 0,2.1 -0.7,2.8 -0.5,0.5 -1.1,0.8 -1.9,0.8 -0.8,0 -1.4,-0.3 -1.9,-0.8 C 95,55.6 95,54.8 95,53.6 c 0,-1.2 0,-2.1 0.7,-2.8 0.5,-0.5 1.1,-0.8 1.9,-0.8 0.8,0 1.4,0.3 1.9,0.8 0.7,0.7 0.7,1.6 0.7,2.8 z m -1.4,0 c 0,-1.3 -0.1,-1.7 -0.3,-2 -0.2,-0.2 -0.5,-0.4 -0.9,-0.4 -0.4,0 -0.7,0.1 -0.9,0.4 -0.3,0.3 -0.3,0.6 -0.3,2 0,1.4 0.1,1.7 0.3,2 0.2,0.2 0.5,0.4 0.9,0.4 0.4,0 0.7,-0.1 0.9,-0.4 0.2,-0.4 0.3,-0.7 0.3,-2 z m 7.8,1.1 c 0,1.5 -1.1,2.5 -2.6,2.5 -1.5,0 -2.6,-1 -2.6,-2.5 v -4.6 h 1.4 v 4.6 c 0,0.8 0.5,1.3 1.2,1.3 0.7,0 1.2,-0.5 1.2,-1.3 v -4.6 h 1.4 z m 6,-3.4 h -1.8 v 5.8 h -1.4 v -5.8 h -1.8 v -1.2 h 5 z m 6.2,2.2 c 0,1.1 0.1,2.1 -0.7,2.9 -0.5,0.5 -1.1,0.7 -1.8,0.7 h -2.5 v -7 h 2.5 c 0.7,0 1.4,0.2 1.8,0.7 0.8,0.7 0.7,1.7 0.7,2.7 z m -1.3,0 c 0,-1.1 0,-1.5 -0.3,-1.8 -0.2,-0.3 -0.6,-0.4 -1,-0.4 h -1 v 4.6 h 1 c 0.5,0 0.8,-0.1 1,-0.4 0.2,-0.4 0.3,-0.9 0.3,-2 z m 7.7,0.1 c 0,1.2 0,2.1 -0.7,2.8 -0.5,0.5 -1.1,0.8 -1.9,0.8 -0.8,0 -1.4,-0.3 -1.9,-0.8 -0.7,-0.7 -0.7,-1.6 -0.7,-2.8 0,-1.2 0,-2.1 0.7,-2.8 0.5,-0.5 1.1,-0.8 1.9,-0.8 0.8,0 1.4,0.3 1.9,0.8 0.7,0.7 0.7,1.6 0.7,2.8 z m -1.4,0 c 0,-1.3 -0.1,-1.7 -0.3,-2 -0.2,-0.2 -0.5,-0.4 -0.9,-0.4 -0.4,0 -0.7,0.1 -0.9,0.4 -0.3,0.3 -0.3,0.6 -0.3,2 0,1.4 0.1,1.7 0.3,2 0.2,0.2 0.5,0.4 0.9,0.4 0.4,0 0.7,-0.1 0.9,-0.4 0.2,-0.4 0.3,-0.7 0.3,-2 z m 12.9,-3.5 -1.9,7 h -1.1 l -1.3,-4.2 -1.3,4.2 H 130 l -1.9,-7 h 1.4 l 1.1,4.4 1.3,-4.4 h 1 l 1.3,4.4 1.1,-4.4 z m 2.3,7 h -1.4 v -7 h 1.4 z m 6.1,-5.8 h -1.8 v 5.8 h -1.4 v -5.8 h -1.8 v -1.2 h 5 z m 6.2,5.8 h -1.4 v -2.9 h -2.4 v 2.9 h -1.4 v -7 h 1.4 V 53 h 2.4 v -2.9 h 1.4 z m 9.3,0 h -1.4 l -0.4,-1.2 h -2.5 l -0.4,1.2 h -1.4 l 2.5,-7 h 1.1 z m -2.2,-2.4 -0.9,-2.5 -0.9,2.5 z m 8.5,2.4 h -1.2 l -2.8,-4.3 v 4.3 h -1.4 v -7 h 1.2 l 2.8,4.3 v -4.3 h 1.4 z m 7,0 h -1.4 l -0.4,-1.2 h -2.5 l -0.4,1.2 h -1.4 l 2.5,-7 h 1.1 z m -2.2,-2.4 -0.9,-2.5 -0.9,2.5 z m 7.6,2.4 h -4.5 v -7 h 1.4 v 5.8 h 3.2 v 1.2 z m 5.9,-7 -2.1,4.1 v 2.9 h -1.4 v -2.9 l -2.1,-4.1 h 1.5 l 1.3,2.8 1.3,-2.8 z m 5.4,1.2 h -1.8 v 5.8 h -1.4 v -5.8 h -1.8 v -1.2 h 5 z m 2.4,5.8 h -1.4 v -7 h 1.4 z m 6.6,-2.2 c -0.2,1.4 -1.2,2.2 -2.6,2.2 -0.7,0 -1.4,-0.3 -1.9,-0.8 -0.3,-0.3 -0.5,-0.7 -0.6,-1.1 -0.1,-0.4 -0.1,-1 -0.1,-1.7 0,-0.8 0,-1.3 0.1,-1.7 0.1,-0.4 0.3,-0.7 0.6,-1.1 0.5,-0.5 1.1,-0.8 1.9,-0.8 1.3,0 2.3,0.8 2.6,2.2 h -1.4 c -0.1,-0.6 -0.5,-1 -1.2,-1 -0.4,0 -0.7,0.1 -0.9,0.4 -0.3,0.3 -0.3,0.6 -0.3,2 0,1.4 0.1,1.7 0.3,2 0.2,0.2 0.5,0.4 0.9,0.4 0.7,0 1,-0.4 1.2,-1 z m 5.7,0.1 c 0,1.4 -1.1,2.1 -2.6,2.1 -1.1,0 -1.9,-0.2 -2.6,-0.9 l 0.9,-0.9 c 0.4,0.4 1,0.6 1.7,0.6 0.8,0 1.2,-0.3 1.2,-0.9 0,-0.2 -0.1,-0.5 -0.2,-0.6 -0.1,-0.1 -0.3,-0.2 -0.6,-0.2 l -0.8,-0.1 c -0.6,-0.1 -1,-0.3 -1.4,-0.6 -0.3,-0.3 -0.5,-0.8 -0.5,-1.4 0,-1.2 0.9,-2.1 2.4,-2.1 1,0 1.7,0.2 2.3,0.8 l -0.9,0.9 c -0.4,-0.4 -1,-0.5 -1.4,-0.5 -0.7,0 -1.1,0.4 -1.1,0.9 0,0.2 0.1,0.4 0.2,0.5 0.1,0.1 0.4,0.2 0.6,0.3 l 0.8,0.1 c 0.6,0.1 1,0.3 1.3,0.5 0.5,0.4 0.7,0.9 0.7,1.5 z"
       style="fill:#027366;fill-opacity:1"
       id="path28"
       inkscape:connector-curvature="0" />
  </g>
</svg>
