<?xml version="1.0" encoding="UTF-8" standalone="no"?>
<svg
   xmlns:dc="http://purl.org/dc/elements/1.1/"
   xmlns:cc="http://creativecommons.org/ns#"
   xmlns:rdf="http://www.w3.org/1999/02/22-rdf-syntax-ns#"
   xmlns:svg="http://www.w3.org/2000/svg"
   xmlns="http://www.w3.org/2000/svg"
   xmlns:sodipodi="http://sodipodi.sourceforge.net/DTD/sodipodi-0.dtd"
   xmlns:inkscape="http://www.inkscape.org/namespaces/inkscape"
   version="1.1"
   width="45.000004"
   height="45.122066"
   id="svg34"
   sodipodi:docname="logo-mobile.svg"
   inkscape:version="0.92.3 (2405546, 2018-03-11)"
   inkscape:export-filename="/home/longwei/Nextcloud/Data-Science-Projects/datapleth/static/favicon.png"
   inkscape:export-xdpi="35.817429"
   inkscape:export-ydpi="35.817429">
  <metadata
     id="metadata40">
    <rdf:RDF>
      <cc:Work
         rdf:about="">
        <dc:format>image/svg+xml</dc:format>
        <dc:type
           rdf:resource="http://purl.org/dc/dcmitype/StillImage" />
        <dc:title></dc:title>
      </cc:Work>
    </rdf:RDF>
  </metadata>
  <defs
     id="defs38" />
  <sodipodi:namedview
     pagecolor="#ffffff"
     bordercolor="#666666"
     borderopacity="1"
     objecttolerance="10"
     gridtolerance="10"
     guidetolerance="10"
     inkscape:pageopacity="0"
     inkscape:pageshadow="2"
     inkscape:window-width="2594"
     inkscape:window-height="1495"
     id="namedview36"
     showgrid="false"
     inkscape:zoom="3.6796191"
     inkscape:cx="-26.625311"
     inkscape:cy="-11.67531"
     inkscape:window-x="859"
     inkscape:window-y="158"
     inkscape:window-maximized="0"
     inkscape:current-layer="svg34"
     showguides="true"
     inkscape:guide-bbox="true"
     fit-margin-top="0"
     fit-margin-left="0"
     fit-margin-right="0"
     fit-margin-bottom="0">
    <sodipodi:guide
       position="-1515.5075,-315.82625"
       orientation="0,1"
       id="guide4677"
       inkscape:locked="false" />
  </sodipodi:namedview>
  <g
     id="g1495"
     transform="scale(0.06576157)">
    <g
       transform="matrix(11.538462,0,0,11.538462,-276.0466,223.30752)"
       id="Layer_2" />
    <g
       transform="matrix(11.538462,0,0,11.538462,-276.0466,223.30752)"
       id="SvgjsG1265" />
    <g
       transform="matrix(11.538462,0,0,11.538462,-276.0466,246.56458)"
       rel="main_text"
       id="1561670277711"
       style="fill:#027366;fill-opacity:1" />
    <rect
       style="fill:none;fill-opacity:1;stroke:#600000;stroke-opacity:0"
       y="4.0880189"
       x="4.1044922"
       height="677.9704"
       width="676.0813"
       id="rect40" />
    <rect
       y="10"
       x="10"
       height="666.14642"
       width="664.29028"
       id="rect847"
       style="fill:#ffffff;fill-opacity:1;stroke:#027366;stroke-width:20;stroke-miterlimit:4;stroke-dasharray:none;stroke-opacity:1" />
    <g
       style="fill:#027366;fill-opacity:1"
       transform="matrix(8.9006113,0,0,8.4944562,-13.87931,249.48484)"
       rel="symbol"
       id="1561670282759">
      <path
         inkscape:connector-curvature="0"
         id="path6"
         style="fill:#027366;fill-opacity:1"
         d="m 66.2,29.7 -2.7,5.8 h -2.1 l -1.1,-1.3 -1.5,2.6 H 55.9 L 54,42.5 H 52.2 L 48.6,31.4 47.5,34.8 H 45.9 L 43.5,26.2 39.4,40 H 36.5 L 35,42.2 h -1.2 l -5.4,-12 -4.1,12.9 h -1.8 l -3.1,-8 -5.1,8.4 -2.2,-5.4 c 0,0 -2.2,5.6 -2.2,5.7 0,0.1 -1.6,-4.6 -1.6,-4.6 0,0 -3.2,8.1 -3.3,8.3 v 0.4 h 70 v -3.5 z"
         class="st0" />
      <rect
         id="rect8"
         style="fill:#027366;fill-opacity:1"
         height="0.60000002"
         width="2.5"
         class="st0"
         y="37.299999"
         x="7" />
      <rect
         id="rect10"
         style="fill:#027366;fill-opacity:1"
         height="0.60000002"
         width="2.5"
         class="st0"
         y="36.700001"
         x="10.8" />
      <rect
         id="rect12"
         style="fill:#027366;fill-opacity:1"
         height="0.60000002"
         width="2.5"
         class="st0"
         y="34.099998"
         x="18.1" />
      <rect
         id="rect14"
         style="fill:#027366;fill-opacity:1"
         height="0.60000002"
         width="2.5"
         class="st0"
         y="28.799999"
         x="26.9" />
      <rect
         id="rect16"
         style="fill:#027366;fill-opacity:1"
         height="0.60000002"
         width="2.5"
         class="st0"
         y="25"
         x="42" />
      <rect
         id="rect18"
         style="fill:#027366;fill-opacity:1"
         height="0.60000002"
         width="2.5"
         class="st0"
         y="30.200001"
         x="47.099998" />
      <rect
         id="rect20"
         style="fill:#027366;fill-opacity:1"
         height="0.60000002"
         width="2.5"
         class="st0"
         y="33"
         x="58.900002" />
      <rect
         id="rect22"
         style="fill:#027366;fill-opacity:1"
         height="0.60000002"
         width="2.5"
         class="st0"
         y="28.299999"
         x="65.099998" />
    </g>
    <path
       sodipodi:nodetypes="cscsccsscscsssssscccssscsssscccc"
       inkscape:connector-curvature="0"
       id="path25"
       style="fill:#027366;fill-opacity:1;stroke-width:12.21383476"
       d="m 403.82501,94.866445 c 3.66415,-1.221383 7.32829,-1.221383 10.99245,-1.221383 h 10.99245 10.99246 c 3.66415,0 7.3283,1.221383 10.99245,1.221383 V 425.86139 c -12.21384,3.66415 -24.42768,6.10692 -39.08427,8.54968 -14.6566,2.44276 -30.5346,3.66415 -48.85535,3.66415 -17.09935,0 -31.75596,-2.44276 -47.63395,-6.10691 -14.65661,-3.66415 -28.09182,-10.99247 -39.08425,-20.76352 -10.99246,-9.77108 -19.54215,-21.98492 -26.87046,-36.64151 -6.10692,-14.6566 -9.77107,-34.19874 -9.77107,-56.18365 0,-19.54214 2.44277,-36.6415 8.5497,-52.51949 6.10691,-15.87799 13.43522,-29.3132 24.42767,-40.30566 10.99245,-10.99246 23.20628,-19.54213 37.86288,-25.64906 14.6566,-6.10691 30.53459,-9.77106 48.85534,-9.77106 8.54969,0 15.87799,1.22138 24.42767,2.44277 8.54967,1.22138 15.87798,2.44276 21.98489,4.88553 z m 0,140.459095 c -6.10691,-2.44275 -12.21384,-4.88553 -19.54213,-6.10691 -7.32831,-1.22138 -14.6566,-2.44277 -23.20629,-2.44277 -12.21383,0 -23.20628,2.44277 -32.97735,7.3283 -9.77107,4.88554 -17.09937,10.99246 -23.20628,18.32077 -6.10692,8.54968 -10.99246,17.09937 -13.43522,28.09182 -2.44277,10.99244 -4.88554,23.20629 -4.88554,35.42013 0,29.31319 7.3283,50.07671 20.76352,62.29054 13.43523,12.21385 31.75597,18.32077 54.96225,18.32077 8.54968,0 15.87798,0 21.98491,-1.22139 7.32829,-1.22138 12.21383,-2.44277 18.32074,-3.66415 V 235.32554 Z"
       class="st1" />
  </g>
</svg>
